<?xml version="1.0" standalone="no"?>

<svg version="1.0" xmlns="http://www.w3.org/2000/svg"
 width="30px" height="30px" viewBox="0 0 4720.000000 1090.000000"
 preserveAspectRatio="xMidYMid meet">

<g transform="translate(0.000000,1090.000000) scale(0.100000,-0.100000)"
fill="#000000" stroke="none">
<path d="M3510 10894 c-19 -2 -84 -9 -145 -15 -687 -68 -1383 -353 -1931 -789
-715 -569 -1202 -1378 -1363 -2262 -46 -253 -55 -363 -56 -678 0 -385 24 -593
106 -922 164 -654 488 -1231 963 -1717 478 -487 1025 -809 1693 -996 l113 -31
-253 -325 c-139 -178 -446 -571 -681 -873 -236 -301 -429 -555 -430 -562 0 -8
386 -317 859 -688 804 -631 861 -674 876 -658 9 9 691 883 1516 1942 824 1059
1595 2048 1713 2199 318 406 325 414 425 566 316 479 503 984 587 1584 29 209
32 703 5 906 -97 726 -347 1334 -772 1880 -612 785 -1504 1289 -2515 1421
-118 15 -621 28 -710 18z m541 -2192 c1026 -214 1573 -1322 1114 -2257 -288
-588 -877 -924 -1565 -892 -223 10 -379 51 -585 152 -426 210 -725 607 -837
1111 -19 85 -22 130 -22 324 -1 198 2 238 22 330 71 325 218 597 441 820 233
232 484 364 806 424 119 23 495 15 626 -12z"/>
<path d="M17065 10669 c-357 -55 -666 -302 -763 -609 -32 -99 -44 -184 -44
-305 1 -245 78 -439 241 -608 125 -130 271 -214 464 -264 94 -25 118 -27 297
-27 169 0 206 2 277 21 202 54 338 129 468 258 183 183 265 403 252 675 -12
245 -93 428 -258 586 -144 136 -264 204 -459 255 -87 23 -373 34 -475 18z"/>
<path d="M26770 10674 c-193 -33 -301 -71 -423 -150 -283 -184 -418 -429 -418
-764 -1 -249 75 -442 240 -613 125 -130 272 -214 464 -264 93 -25 119 -27 292
-27 149 -1 206 3 263 17 365 89 608 305 708 632 26 83 28 103 28 260 -1 155
-3 178 -27 258 -47 152 -112 260 -219 363 -150 146 -267 212 -468 265 -57 16
-116 21 -245 24 -93 2 -181 2 -195 -1z"/>
<path d="M39790 6405 l0 -3665 840 0 840 0 0 3665 0 3665 -840 0 -840 0 0
-3665z"/>
<path d="M9200 6215 l0 -3475 1428 0 c1491 0 1576 2 1862 45 728 109 1359 388
1863 823 458 396 816 993 976 1627 142 563 156 1206 40 1790 -178 895 -684
1647 -1421 2111 -117 73 -371 205 -498 257 -376 156 -806 253 -1275 287 -86 6
-691 10 -1557 10 l-1418 0 0 -3475z m2850 2022 c424 -56 752 -189 1022 -413
358 -299 572 -721 640 -1264 17 -137 17 -553 0 -690 -114 -913 -654 -1486
-1533 -1630 -193 -31 -418 -41 -869 -38 l-425 3 -3 2015 c-1 1108 0 2021 3
2029 8 20 1001 10 1165 -12z"/>
<path d="M29270 8940 l0 -670 -335 0 -335 0 0 -700 0 -700 334 0 335 0 4
-1237 c3 -1078 6 -1254 21 -1363 71 -538 234 -872 550 -1126 199 -160 448
-275 729 -338 254 -57 277 -59 920 -63 l597 -4 0 714 0 715 -382 4 c-412 5
-440 8 -546 62 -94 47 -161 150 -181 276 -7 42 -11 463 -11 1213 l0 1147 555
0 555 0 0 700 0 700 -555 0 -555 0 0 670 0 670 -850 0 -850 0 0 -670z"/>
<path d="M21205 8334 c-301 -31 -562 -105 -812 -229 -456 -226 -807 -582
-1059 -1072 -396 -772 -441 -1922 -109 -2798 67 -177 157 -351 266 -515 386
-580 900 -919 1574 -1037 79 -14 158 -17 380 -17 246 0 295 2 404 22 294 53
519 141 742 290 205 138 360 284 495 467 46 63 59 76 63 60 2 -11 1 -236 -2
-500 -6 -515 -13 -599 -63 -785 -106 -395 -384 -640 -820 -726 -125 -25 -421
-25 -559 0 -275 50 -467 145 -625 313 -96 101 -144 183 -193 326 -6 16 -55 17
-840 17 l-834 0 9 -67 c136 -1040 883 -1772 2043 -2002 287 -57 394 -66 800
-66 398 0 499 8 763 61 656 133 1214 494 1558 1011 174 263 320 625 389 968
64 317 59 56 62 3283 l3 2932 -845 0 -845 0 -2 -392 -3 -393 -65 95 c-81 120
-265 304 -388 390 -266 187 -532 294 -853 345 -100 16 -536 29 -634 19z m855
-1464 c396 -42 752 -288 932 -645 57 -113 82 -183 112 -315 83 -370 41 -831
-102 -1115 -79 -159 -233 -340 -375 -444 -381 -277 -929 -293 -1321 -38 -106
69 -238 195 -320 304 -189 252 -278 577 -263 968 10 250 53 438 144 620 171
343 514 602 863 654 155 23 200 24 330 11z"/>
<path d="M34837 8325 c-687 -83 -1264 -444 -1650 -1032 -213 -325 -354 -691
-427 -1111 -71 -409 -71 -920 0 -1340 55 -319 176 -679 311 -925 355 -644 917
-1076 1579 -1211 172 -35 291 -46 484 -46 381 0 666 62 961 209 303 151 520
329 699 575 l51 69 3 -386 2 -387 845 0 845 0 0 2765 0 2765 -845 0 -845 0 0
-392 c-1 -349 -3 -391 -16 -373 -8 11 -42 58 -76 105 -154 214 -380 397 -653
531 -207 101 -437 164 -689 188 -145 14 -444 12 -579 -4z m923 -1455 c312 -33
600 -190 795 -433 205 -256 289 -527 289 -932 0 -298 -37 -488 -135 -694 -164
-347 -488 -596 -859 -662 -172 -31 -430 -12 -595 43 -250 83 -502 294 -645
538 -229 392 -253 1029 -55 1447 169 359 517 629 875 682 155 23 200 24 330
11z"/>
<path d="M44505 8330 c-292 -26 -587 -89 -794 -172 -42 -16 -125 -55 -186 -86
-525 -268 -845 -692 -915 -1211 -14 -102 -14 -367 -1 -472 39 -302 135 -517
315 -707 79 -83 237 -213 336 -278 239 -154 583 -274 1250 -437 672 -164 928
-265 1031 -405 75 -102 86 -253 28 -377 -36 -76 -120 -160 -203 -200 -93 -45
-165 -63 -309 -77 -277 -27 -546 46 -730 197 -137 113 -203 228 -242 418 l-5
27 -832 0 -831 0 7 -82 c13 -165 72 -376 156 -553 208 -444 560 -772 1075
-1000 409 -181 788 -255 1308 -255 447 0 769 54 1107 186 618 242 987 640
1106 1194 26 119 26 454 1 590 -39 212 -105 385 -204 533 -97 145 -341 367
-530 481 -124 74 -300 145 -588 236 -249 80 -305 95 -695 195 -524 134 -710
199 -837 296 -189 142 -202 404 -28 568 108 103 242 143 480 144 233 2 382
-32 522 -119 141 -87 265 -265 297 -424 l13 -65 783 -3 783 -2 -7 57 c-36 314
-163 659 -334 913 -327 487 -813 769 -1502 871 -154 23 -647 34 -825 19z"/>
<path d="M16410 5505 l0 -2765 845 0 845 0 0 2765 0 2765 -845 0 -845 0 0
-2765z"/>
<path d="M26080 5505 l0 -2765 845 0 845 0 0 2765 0 2765 -845 0 -845 0 0
-2765z"/>
</g>
</svg>
